<svg version="1.1" id="Capa_1" xmlns="http://www.w3.org/2000/svg" xmlns:xlink="http://www.w3.org/1999/xlink" x="0px" y="0px"
	 viewBox="0 0 767.07 800" style="enable-background:new 0 0 767.07 800;" xml:space="preserve">
<style type="text/css">
	.st0{fill:#929497;}
	.st1{fill:#EC1C24;}
</style>
<g>
	<path class="st0" d="M714.98,21.38l42.62,71.48c0,0,19.33,32.87-9.85,86.08L447.94,741.92c0,0-6.53,13.38-23.02,24.06
		c-23.39,15.15-99.5,32.98-99.5,32.98s34.66-13.61,45.19-33.83c16.08-30.9,331.55-625.14,331.55-625.14s24.57-68.32,14.08-116.08"/>
	<path class="st0" d="M304.82,655.15L153.93,314.6c0,0-17.15-40.89-5.38-65.01c10.66-21.83,31.47-25.59,31.47-25.59l297.02-37.58
		c-0.76-1.77-1.57-3.52-2.51-5.25c-11.1-20.34-38.37-17.93-38.37-17.93l-335.62,42.49c0,0-21.72,3.96-32.83,26.7
		c-12.3,25.19,5.6,67.81,5.6,67.81l157.41,355.24c16.71,36.65,36.68,54.04,58.29,38.86c7.67-5.4,15.3-20.46,19.87-30.87
		C307.49,660.78,306.13,658.07,304.82,655.15"/>
	<path class="st1" d="M715.54,21.9C702.62-0.72,654.38,1.84,654.38,1.84L62.68,77.96c0,0-31.81,3.46-50.65,32.55
		c-18.86,29.09,6.66,92.39,6.66,92.39l246.62,547.06c0,0,21.79,45.27,54.66,48.49c32.87,3.22,60.45-44.81,60.45-44.81l321.55-610.15
		C730.59,74.83,728.45,44.47,715.54,21.9 M471.49,257.27L312.74,646.45c0,0-11.97,32.33-24.03,40.71
		c-21.5,14.94-41.4-2.18-58.01-38.18L74.14,299.84c0,0-17.82-41.9-5.58-66.66c11.05-22.36,32.65-26.22,32.65-26.22l333.86-41.75
		c0,0,27.13-2.37,38.17,17.59C483.4,201.2,482.38,221.32,471.49,257.27"/>
</g>
</svg>
