<svg version="1.1" id="Capa_1" xmlns="http://www.w3.org/2000/svg" xmlns:xlink="http://www.w3.org/1999/xlink" x="0px" y="0px"
	 viewBox="0 0 742 268" style="enable-background:new 0 0 742 268;" xml:space="preserve">
<style type="text/css">
	.st0{fill:#929497;}
	.st1{fill:#EC1C24;}
	.st2{fill:#1D1D1B;}
</style>
	<g>
		<path class="st0" d="M227.16,22.43l12.82,21.5c0,0,5.81,9.89-2.96,25.89l-90.18,169.33c0,0-1.96,4.02-6.93,7.24
			c-7.04,4.56-29.93,9.92-29.93,9.92s10.43-4.09,13.59-10.18c4.84-9.29,99.72-188.03,99.72-188.03s7.39-20.55,4.23-34.92"/>
		<path class="st0" d="M103.79,213.05L58.41,110.62c0,0-5.16-12.3-1.62-19.55c3.21-6.57,9.47-7.7,9.47-7.7l89.34-11.3
			c-0.23-0.53-0.47-1.06-0.75-1.58c-3.34-6.12-11.54-5.39-11.54-5.39L42.35,77.87c0,0-6.53,1.19-9.87,8.03
			c-3.7,7.58,1.69,20.4,1.69,20.4l47.34,106.85c5.03,11.02,11.03,16.25,17.53,11.69c2.31-1.62,4.6-6.15,5.98-9.29
			C104.6,214.74,104.19,213.93,103.79,213.05"/>
		<path class="st1" d="M227.33,22.58c-3.89-6.8-18.39-6.03-18.39-6.03L30.96,39.44c0,0-9.57,1.04-15.24,9.79
			c-5.67,8.75,2,27.79,2,27.79l74.18,164.54c0,0,6.55,13.62,16.44,14.59c9.89,0.97,18.18-13.48,18.18-13.48l96.72-183.52
			C231.86,38.5,231.21,29.37,227.33,22.58 M153.92,93.37l-47.75,117.06c0,0-3.6,9.73-7.23,12.24c-6.47,4.49-12.45-0.66-17.45-11.48
			L34.41,106.18c0,0-5.36-12.6-1.68-20.05c3.32-6.72,9.82-7.89,9.82-7.89l100.42-12.56c0,0,8.16-0.71,11.48,5.29
			C157.51,76.51,157.2,82.56,153.92,93.37"/>
	</g>
	<g>
		<path class="st2" d="M312.43,110.49c23.94,0,35.93,11.43,35.93,34.29c0,3.22-0.23,6.73-0.71,10.45h-59.07
			c0,16.64,10.02,24.94,30.14,24.94c9.54,0,18.05-1.03,25.49-3.11v11.63c-7.44,2.04-16.47,3.09-27.12,3.09
			c-28.91,0-43.36-13.88-43.36-41.58C273.73,123.7,286.63,110.49,312.43,110.49 M288.58,143.3h45.51
			c-0.31-14.24-7.54-21.38-21.66-21.38C297.5,121.92,289.52,129.05,288.58,143.3"/>
		<rect x="360.91" y="81.05" class="st2" width="14.82" height="110.73"/>
		<path class="st2" d="M423.46,187.9v-12.4c9.89,3.11,19.89,4.66,29.98,4.66c13.42,0,20.12-3.87,20.12-11.61
			c0-7.22-4.69-10.86-14.03-10.86h-12.02c-18.14,0-27.27-7.99-27.27-23.98c0-15.49,11.69-23.22,35.05-23.22
			c10.03,0,20,1.27,29.91,3.86v12.38c-9.91-3.09-19.88-4.64-29.91-4.64c-14,0-21.01,3.87-21.01,11.62c0,7.23,4.43,10.83,13.23,10.83
			h12.02c19.22,0,28.87,8.02,28.87,24.01c0,15.48-11.64,23.23-34.96,23.23C443.35,191.78,433.36,190.49,423.46,187.9"/>
		<path class="st2" d="M516.65,94.63h-14.79V81.05h14.79V94.63z M516.65,191.78h-14.79v-81.29h14.79V191.78z"/>
		<path class="st2" d="M568.82,110.49c23.95,0,35.93,11.43,35.93,34.29c0,3.22-0.25,6.73-0.74,10.45h-59.09
			c0,16.64,10.08,24.94,30.15,24.94c9.56,0,18.07-1.03,25.49-3.11v11.63c-7.42,2.04-16.47,3.09-27.11,3.09
			c-28.91,0-43.37-13.88-43.37-41.58C530.09,123.7,543.02,110.49,568.82,110.49 M544.92,143.3h45.54
			c-0.34-14.24-7.55-21.38-21.65-21.38C553.84,121.92,545.87,129.05,544.92,143.3"/>
		<path class="st2" d="M616.51,97.31h9.27l3.23,13.17h22.75v11.6h-20.44v46.68c0,7.61,3.39,11.4,10.19,11.4h10.25v11.62h-14.09
			c-14.11,0-21.16-7.32-21.16-21.93V97.31z"/>
		<path class="st2" d="M697.11,110.49c23.94,0,35.89,11.43,35.89,34.29c0,3.22-0.23,6.73-0.71,10.45h-59.06
			c0,16.64,10.01,24.94,30.11,24.94c9.59,0,18.09-1.03,25.5-3.11v11.63c-7.41,2.04-16.46,3.09-27.08,3.09
			c-28.95,0-43.4-13.88-43.4-41.58C658.37,123.7,671.31,110.49,697.11,110.49 M673.23,143.3h45.5
			c-0.31-14.24-7.49-21.38-21.62-21.38C682.13,121.92,674.17,129.05,673.23,143.3"/>
	</g>

</svg>
